<svg width="50" height="51" viewBox="0 0 50 51" fill="none" xmlns="http://www.w3.org/2000/svg">
<path d="M45.0031 0.557617H4.99687C3.67339 0.563373 2.40576 1.09168 1.46991 2.02753C0.534059 2.96338 0.00575613 4.23101 0 5.55449V45.5607C0.00575613 46.8842 0.534059 48.1519 1.46991 49.0877C2.40576 50.0236 3.67339 50.5519 4.99687 50.5576H45.0031C46.3266 50.5519 47.5942 50.0236 48.5301 49.0877C49.4659 48.1519 49.9942 46.8842 50 45.5607V5.55449C49.9942 4.23101 49.4659 2.96338 48.5301 2.02753C47.5942 1.09168 46.3266 0.563373 45.0031 0.557617V0.557617ZM14.6812 30.692C15.206 30.9315 15.7728 31.0654 16.3493 31.0858C16.9258 31.1062 17.5006 31.0128 18.041 30.811C18.5814 30.6091 19.0767 30.3028 19.4986 29.9094C19.9205 29.5161 20.2608 29.0435 20.5 28.5186H23.9594C21.8031 37.3482 8.80625 35.7857 8.80625 26.6951C8.80625 17.5967 21.8031 16.0342 23.9594 24.8717H20.5C19.2297 22.0811 15.5609 21.4123 13.3953 23.5857C11.2219 25.7498 11.8891 29.4201 14.6812 30.6904V30.692ZM38.3141 32.4498C37.6594 33.0163 36.9099 33.4627 36.1 33.7686C34.9468 34.2146 33.7027 34.375 32.4741 34.2363C31.2454 34.0975 30.0685 33.6636 29.0437 32.9717V33.7686H25.8938V11.7467H29.0188V20.3076C30.1346 19.5531 31.4274 19.1014 32.7703 18.9967H33.3313C40.4438 18.9811 43.7156 27.8342 38.3125 32.4482L38.3141 32.4498ZM37.85 26.6889C37.861 27.2713 37.7558 27.8501 37.5405 28.3913C37.3252 28.9326 37.0042 29.4256 36.5962 29.8413C36.1882 30.2571 35.7014 30.5874 35.1643 30.8128C34.6272 31.0383 34.0505 31.1544 33.468 31.1544C32.8854 31.1544 32.3088 31.0383 31.7716 30.8128C31.2345 30.5874 30.7477 30.2571 30.3397 29.8413C29.9317 29.4256 29.6107 28.9326 29.3954 28.3913C29.1802 27.8501 29.0749 27.2713 29.0859 26.6889C29.2078 20.9764 37.7203 20.9764 37.85 26.6889Z" fill="url(#paint0_linear_2_3997)"/>
<defs>
<linearGradient id="paint0_linear_2_3997" x1="0" y1="50.5576" x2="50" y2="50.5576" gradientUnits="userSpaceOnUse">
<stop stop-color="#00F0FF"/>
<stop offset="1" stop-color="#5773FF"/>
</linearGradient>
</defs>
</svg>
