<svg width="99" height="100" viewBox="0 0 99 100" fill="none" xmlns="http://www.w3.org/2000/svg">
<path d="M40.2195 81.1289C48.7779 81.1423 57.1155 78.4145 64.0109 73.3451H64.0047C64.1903 73.5926 64.3883 73.8277 64.6111 74.0566L88.4334 97.8782C89.5936 99.0392 91.1675 99.6918 92.8089 99.6924C94.4503 99.693 96.0247 99.0415 97.1858 97.8813C98.3468 96.7211 98.9994 95.1472 99 93.5059C99.0006 91.8646 98.3491 90.2902 97.1889 89.1292L73.3666 65.3076C73.1453 65.0837 72.9074 64.8769 72.655 64.6889C77.7232 57.7978 80.4511 49.4647 80.439 40.9106C80.4357 30.2451 76.1973 20.0173 68.6554 12.4757C61.1134 4.93398 50.8854 0.695663 40.2195 0.692383C29.5526 0.692383 19.3226 4.92965 11.78 12.472C4.2374 20.0144 0 30.2441 0 40.9106C0 51.5772 4.2374 61.8068 11.78 69.3492C19.3226 76.8916 29.5526 81.1289 40.2195 81.1289ZM40.2195 28.4244C50.5157 18.0728 76.2624 36.1834 40.2195 59.4729C4.17664 36.1834 29.9233 18.079 40.2195 28.4244Z" fill="white"/>
</svg>
