<svg width="596" height="445" viewBox="0 0 596 445" fill="none" xmlns="http://www.w3.org/2000/svg">
<path d="M298 444.784C425.642 444.784 529.117 438.743 529.117 431.291C529.117 423.839 425.642 417.797 298 417.797C170.358 417.797 66.8831 423.839 66.8831 431.291C66.8831 438.743 170.358 444.784 298 444.784Z" fill="#0A043C"/>
<path d="M247.757 432.483C247.435 432.483 214.465 432.363 181.613 430.85C114.289 427.738 113.002 421.862 112.477 419.657C112.352 419.1 112.343 418.523 112.452 417.963C112.56 417.403 112.784 416.872 113.109 416.403C116.029 412.064 127.413 410.049 140.608 407.725C152.874 405.555 166.832 403.1 169.431 398.737C169.642 398.399 169.775 398.018 169.818 397.621C169.861 397.225 169.815 396.824 169.681 396.448C168.203 391.764 154.817 388.522 139.309 384.767C113.002 378.39 80.2692 370.463 70.2803 349.198C54.2359 315.047 71.3769 258.474 72.1159 256.079L74.3927 256.782C74.2139 257.366 56.7868 314.88 72.4378 348.184C81.9738 368.448 115.421 376.518 139.869 382.442C157.404 386.698 170.075 389.761 171.958 395.733C172.192 396.433 172.27 397.176 172.185 397.909C172.101 398.643 171.856 399.348 171.469 399.977C168.251 405.257 155.031 407.594 141.025 410.061C129.976 412.016 117.436 414.233 115.099 417.738C114.952 417.937 114.849 418.166 114.797 418.408C114.746 418.651 114.747 418.902 114.801 419.144C115.123 420.622 120.905 425.664 181.673 428.466C214.465 429.979 247.388 430.099 247.721 430.099L247.757 432.483Z" fill="#464646"/>
<path d="M244.694 120.739H236.91V129.703H244.694V120.739Z" fill="#464646"/>
<path opacity="0.2" d="M244.694 120.739H236.91V129.703H244.694V120.739Z" fill="#393091"/>
<path d="M224.835 137.26L226.396 131.92C226.674 130.974 227.25 130.144 228.039 129.553C228.827 128.963 229.786 128.643 230.771 128.642H253.896C254.714 128.643 255.517 128.866 256.22 129.285C256.923 129.705 257.499 130.306 257.889 131.026L261.31 137.272H223.822" fill="#464646"/>
<path opacity="0.4" d="M224.835 137.26L226.396 131.92C226.674 130.974 227.25 130.144 228.039 129.553C228.827 128.963 229.786 128.643 230.771 128.642H253.896C254.714 128.643 255.517 128.866 256.22 129.285C256.923 129.705 257.499 130.306 257.889 131.026L261.31 137.272H223.822" fill="#393091"/>
<path opacity="0.2" d="M233.727 137.259H261.31L257.889 131.013C257.499 130.294 256.923 129.693 256.22 129.273C255.517 128.854 254.714 128.631 253.896 128.629H236.195C235.539 128.633 234.912 128.895 234.449 129.36C233.987 129.824 233.727 130.453 233.727 131.109V137.259Z" fill="#393091"/>
<path d="M251.462 121.887C257.085 116.264 257.085 107.146 251.462 101.523C245.839 95.8999 236.722 95.8999 231.098 101.523C225.475 107.146 225.475 116.264 231.098 121.887C236.722 127.51 245.839 127.51 251.462 121.887Z" fill="#464646"/>
<path opacity="0.3" d="M251.462 121.887C257.085 116.264 257.085 107.146 251.462 101.523C245.839 95.8999 236.722 95.8999 231.098 101.523C225.475 107.146 225.475 116.264 231.098 121.887C236.722 127.51 245.839 127.51 251.462 121.887Z" fill="#393091"/>
<path d="M255.672 115.125C255.672 116.684 255.21 118.207 254.343 119.503C253.477 120.799 252.246 121.809 250.805 122.405C249.365 123.001 247.78 123.157 246.251 122.852C244.723 122.547 243.319 121.795 242.217 120.692C241.116 119.589 240.366 118.184 240.064 116.654C239.761 115.125 239.919 113.541 240.517 112.101C241.115 110.662 242.127 109.432 243.424 108.568C244.721 107.703 246.246 107.243 247.805 107.246C249.892 107.249 251.893 108.08 253.369 109.558C254.844 111.035 255.672 113.037 255.672 115.125Z" fill="#464646"/>
<path opacity="0.2" d="M255.672 115.125C255.672 116.684 255.21 118.207 254.343 119.503C253.477 120.799 252.246 121.809 250.805 122.405C249.365 123.001 247.78 123.157 246.251 122.852C244.723 122.547 243.319 121.795 242.217 120.692C241.116 119.589 240.366 118.184 240.064 116.654C239.761 115.125 239.919 113.541 240.517 112.101C241.115 110.662 242.127 109.432 243.424 108.568C244.721 107.703 246.246 107.243 247.805 107.246C249.892 107.249 251.893 108.08 253.369 109.558C254.844 111.035 255.672 113.037 255.672 115.125Z" fill="#393091"/>
<path d="M253.896 115.697C253.896 116.72 253.592 117.721 253.023 118.572C252.454 119.423 251.646 120.086 250.7 120.477C249.754 120.869 248.713 120.97 247.709 120.77C246.705 120.569 245.783 120.075 245.06 119.351C244.337 118.626 243.846 117.703 243.647 116.699C243.449 115.694 243.553 114.654 243.947 113.709C244.34 112.764 245.005 111.957 245.857 111.39C246.71 110.823 247.711 110.521 248.735 110.523C249.413 110.523 250.086 110.657 250.713 110.917C251.34 111.178 251.909 111.559 252.388 112.039C252.868 112.52 253.248 113.09 253.507 113.718C253.765 114.345 253.898 115.018 253.896 115.697Z" fill="#464646"/>
<path opacity="0.2" d="M239.926 106.161C239.928 106.374 239.867 106.583 239.75 106.761C239.633 106.939 239.466 107.079 239.269 107.161C239.073 107.244 238.856 107.266 238.647 107.225C238.437 107.184 238.245 107.082 238.094 106.931C237.944 106.78 237.841 106.588 237.8 106.379C237.759 106.17 237.781 105.953 237.864 105.756C237.947 105.56 238.086 105.393 238.264 105.276C238.443 105.159 238.652 105.097 238.865 105.1C239.146 105.1 239.416 105.212 239.615 105.41C239.814 105.609 239.926 105.879 239.926 106.161Z" fill="white"/>
<path d="M141.514 130.978C141.514 130.978 88.7325 127.343 84.632 228.722L73.4153 228.031C73.4153 228.031 70.2207 165.32 96.8142 134.09C99.5532 130.908 102.983 128.394 106.843 126.742C110.702 125.089 114.888 124.34 119.081 124.554C128.593 124.971 140.739 126.425 141.514 130.978Z" fill="#464646"/>
<path d="M89.8222 261.219C102.613 255.206 108.108 239.961 102.094 227.17C96.0804 214.379 80.8362 208.885 68.0451 214.899C55.254 220.912 49.7597 236.156 55.7733 248.947C61.7869 261.739 77.0311 267.233 89.8222 261.219Z" fill="#464646"/>
<path opacity="0.1" d="M89.8222 261.219C102.613 255.206 108.108 239.961 102.094 227.17C96.0804 214.379 80.8362 208.885 68.0451 214.899C55.254 220.912 49.7597 236.156 55.7733 248.947C61.7869 261.739 77.0311 267.233 89.8222 261.219Z" fill="#393091"/>
<path d="M66.001 232.835C65.08 235.395 64.9387 238.17 65.5949 240.81C66.2511 243.45 67.6754 245.836 69.6876 247.667C71.6998 249.498 74.2097 250.69 76.8998 251.095C79.59 251.499 82.3396 251.097 84.8011 249.939C87.2626 248.78 89.3254 246.918 90.7287 244.588C92.1319 242.257 92.8127 239.563 92.6849 236.846C92.5571 234.128 91.6264 231.51 90.0105 229.321C88.3947 227.133 86.1662 225.473 83.6069 224.551C81.907 223.936 80.1028 223.664 78.2974 223.748C76.492 223.832 74.7209 224.271 73.0856 225.041C71.4502 225.81 69.9827 226.895 68.767 228.232C67.5514 229.57 66.6114 231.134 66.001 232.835Z" fill="#686868"/>
<path opacity="0.1" d="M80.5069 245.878C85.1241 243.708 87.1074 238.205 84.9366 233.588C82.7659 228.97 77.2632 226.987 72.6461 229.158C68.0289 231.329 66.0456 236.831 68.2163 241.449C70.387 246.066 75.8897 248.049 80.5069 245.878Z" fill="#45444D"/>
<path d="M306.451 428.62V433.209C306.451 433.345 306.424 433.479 306.372 433.604C306.32 433.73 306.243 433.843 306.147 433.938C306.05 434.034 305.936 434.109 305.81 434.16C305.684 434.211 305.55 434.236 305.414 434.234H175.832C174.726 434.237 173.637 433.967 172.66 433.45C171.683 432.932 170.848 432.183 170.228 431.267C169.609 430.351 169.224 429.296 169.108 428.197C168.992 427.097 169.148 425.986 169.562 424.961L210.626 323.259L276.985 323.712L274.72 336.908L260.082 422.314C259.971 422.962 260.003 423.627 260.175 424.261C260.348 424.895 260.656 425.484 261.079 425.987C261.503 426.49 262.031 426.894 262.626 427.172C263.222 427.45 263.871 427.594 264.529 427.595H305.414C305.55 427.593 305.684 427.619 305.81 427.67C305.936 427.72 306.05 427.796 306.147 427.891C306.243 427.986 306.32 428.1 306.372 428.225C306.424 428.35 306.451 428.485 306.451 428.62Z" fill="url(#paint0_linear_2_105)"/>
<path opacity="0.6" d="M306.451 428.62V433.209C306.451 433.345 306.424 433.479 306.372 433.604C306.32 433.73 306.243 433.843 306.147 433.938C306.05 434.034 305.936 434.109 305.81 434.16C305.684 434.211 305.55 434.236 305.414 434.234H175.832C174.726 434.237 173.637 433.967 172.66 433.45C171.683 432.932 170.848 432.183 170.228 431.267C169.609 430.351 169.224 429.296 169.108 428.197C168.992 427.097 169.148 425.986 169.562 424.961L195.023 361.916L210.626 323.259L276.985 323.712L274.72 336.908L268.355 374.05L260.082 422.314C259.971 422.962 260.003 423.627 260.175 424.261C260.348 424.895 260.656 425.484 261.079 425.987C261.503 426.49 262.031 426.894 262.626 427.172C263.222 427.45 263.871 427.594 264.529 427.595H305.414C305.55 427.593 305.684 427.619 305.81 427.67C305.936 427.72 306.05 427.796 306.147 427.891C306.243 427.986 306.32 428.1 306.372 428.225C306.424 428.35 306.451 428.485 306.451 428.62Z" fill="#393091"/>
<path opacity="0.2" d="M264.529 427.631H180.218C179.732 427.631 179.254 427.511 178.825 427.282C178.396 427.052 178.031 426.721 177.761 426.316C177.491 425.912 177.325 425.447 177.277 424.964C177.23 424.48 177.303 423.992 177.489 423.543L213.487 336.944H274.72L260.082 422.351C259.971 422.998 260.003 423.663 260.175 424.297C260.348 424.931 260.656 425.52 261.079 426.023C261.503 426.526 262.031 426.93 262.626 427.208C263.222 427.486 263.871 427.63 264.529 427.631Z" fill="white"/>
<path opacity="0.1" d="M276.985 323.748L274.72 336.944L268.355 374.086L195.023 361.952L210.626 323.295L276.985 323.748Z" fill="white"/>
<path d="M406.019 134.196H98.8049C97.7723 134.196 96.7499 134.4 95.796 134.795C94.8422 135.191 93.9757 135.771 93.2461 136.501C92.5165 137.232 91.9382 138.099 91.5441 139.054C91.15 140.008 90.948 141.031 90.9496 142.064V350.008C90.9496 352.091 91.7772 354.089 93.2503 355.562C94.7235 357.036 96.7215 357.863 98.8049 357.863H406.019C407.052 357.865 408.074 357.663 409.029 357.269C409.983 356.875 410.851 356.296 411.581 355.567C412.312 354.837 412.892 353.971 413.287 353.017C413.683 352.063 413.886 351.041 413.886 350.008V142.028C413.88 139.947 413.048 137.953 411.573 136.484C410.098 135.016 408.1 134.193 406.019 134.196Z" fill="url(#paint1_linear_2_105)"/>
<path opacity="0.7" d="M406.019 134.196H98.8049C97.7723 134.196 96.7499 134.4 95.796 134.795C94.8422 135.191 93.9757 135.771 93.2461 136.501C92.5165 137.232 91.9382 138.099 91.5441 139.054C91.15 140.008 90.948 141.031 90.9496 142.064V350.008C90.9496 352.091 91.7772 354.089 93.2503 355.562C94.7235 357.036 96.7215 357.863 98.8049 357.863H406.019C407.052 357.865 408.074 357.663 409.029 357.269C409.983 356.875 410.851 356.296 411.581 355.567C412.312 354.837 412.892 353.971 413.287 353.017C413.683 352.063 413.886 351.041 413.886 350.008V142.028C413.88 139.947 413.048 137.953 411.573 136.484C410.098 135.016 408.1 134.193 406.019 134.196Z" fill="#393091"/>
<path opacity="0.2" d="M105.313 357.863H98.8049C96.7215 357.863 94.7235 357.036 93.2503 355.563C91.7772 354.089 90.9496 352.091 90.9496 350.008V142.028C90.948 140.995 91.15 139.973 91.5441 139.018C91.9382 138.064 92.5165 137.196 93.2461 136.466C93.9757 135.735 94.8422 135.155 95.796 134.76C96.7499 134.364 97.7723 134.161 98.8049 134.161H105.313C104.281 134.161 103.258 134.364 102.304 134.76C101.351 135.155 100.484 135.735 99.7545 136.466C99.0249 137.196 98.4465 138.064 98.0524 139.018C97.6584 139.973 97.4563 140.995 97.4579 142.028V350.008C97.4579 352.091 98.2855 354.089 99.7587 355.563C101.232 357.036 103.23 357.863 105.313 357.863Z" fill="white"/>
<path d="M406.806 141.861H104.55V342.415H406.806V141.861Z" fill="url(#paint2_linear_2_105)"/>
<path opacity="0.1" d="M375.301 141.861C333.51 183.724 226.17 276.914 104.55 270.084V141.861H375.301Z" fill="#393091"/>
<path opacity="0.1" d="M406.806 218.829V342.415H224.835C231.808 317.455 245.755 283.268 272.825 258.832C321.506 214.883 377.995 215.014 406.806 218.829Z" fill="#393091"/>
<path opacity="0.8" d="M285.103 259.571H226.254C224.779 259.571 223.583 260.767 223.583 262.241V262.742C223.583 264.217 224.779 265.412 226.254 265.412H285.103C286.577 265.412 287.773 264.217 287.773 262.742V262.241C287.773 260.767 286.577 259.571 285.103 259.571Z" fill="#393091"/>
<path opacity="0.4" d="M293.518 272.564H217.838C216.732 272.564 215.835 273.461 215.835 274.567V281.456C215.835 282.562 216.732 283.459 217.838 283.459H293.518C294.624 283.459 295.521 282.562 295.521 281.456V274.567C295.521 273.461 294.624 272.564 293.518 272.564Z" fill="white"/>
<path d="M293.506 273.863H286.855C286.466 273.863 286.151 274.178 286.151 274.566V281.444C286.151 281.832 286.466 282.147 286.855 282.147H293.506C293.895 282.147 294.209 281.832 294.209 281.444V274.566C294.209 274.178 293.895 273.863 293.506 273.863Z" fill="url(#paint3_linear_2_105)"/>
<path opacity="0.4" d="M289.656 216.933C289.658 223.653 287.668 230.223 283.936 235.811C280.204 241.4 274.898 245.756 268.69 248.329C262.482 250.902 255.65 251.575 249.059 250.265C242.468 248.954 236.414 245.719 231.662 240.967C226.91 236.215 223.675 230.161 222.364 223.57C221.054 216.979 221.727 210.147 224.3 203.939C226.873 197.731 231.229 192.425 236.818 188.693C242.406 184.961 248.976 182.971 255.696 182.973C260.161 182.952 264.587 183.817 268.716 185.516C272.846 187.216 276.597 189.716 279.755 192.874C282.913 196.032 285.413 199.783 287.113 203.913C288.812 208.042 289.676 212.468 289.656 216.933Z" fill="white"/>
<path opacity="0.8" d="M281.312 239.176C278.125 242.86 274.183 245.815 269.752 247.841C265.322 249.867 260.508 250.915 255.636 250.915C250.765 250.915 245.951 249.867 241.52 247.841C237.09 245.815 233.148 242.86 229.961 239.176C231.197 234.767 233.545 230.751 236.781 227.511C240.016 224.271 244.03 221.918 248.437 220.676C246.08 219.126 244.286 216.857 243.321 214.206C242.356 211.555 242.272 208.663 243.081 205.961C243.89 203.258 245.55 200.888 247.812 199.204C250.075 197.519 252.821 196.609 255.642 196.609C258.463 196.609 261.209 197.519 263.472 199.204C265.735 200.888 267.394 203.258 268.203 205.961C269.013 208.663 268.928 211.555 267.964 214.206C266.999 216.857 265.205 219.126 262.848 220.676C267.253 221.918 271.265 224.273 274.498 227.512C277.732 230.752 280.078 234.768 281.312 239.176Z" fill="#393091"/>
<path opacity="0.4" d="M371.248 327.229H364.549V333.928H371.248V327.229Z" fill="white"/>
<path opacity="0.4" d="M382.56 327.229H379.294C378.346 327.229 377.578 327.998 377.578 328.945V332.212C377.578 333.16 378.346 333.928 379.294 333.928H382.56C383.508 333.928 384.277 333.16 384.277 332.212V328.945C384.277 327.998 383.508 327.229 382.56 327.229Z" fill="white"/>
<path opacity="0.4" d="M394.23 327.229H393.658C391.966 327.229 390.594 328.601 390.594 330.292V330.865C390.594 332.556 391.966 333.928 393.658 333.928H394.23C395.922 333.928 397.294 332.556 397.294 330.865V330.292C397.294 328.601 395.922 327.229 394.23 327.229Z" fill="white"/>
<g opacity="0.1">
<path opacity="0.1" d="M149.346 141.862L104.55 309.242V141.862H149.346Z" fill="#393091"/>
<path opacity="0.1" d="M199.898 141.862L146.223 342.416H109.247L162.911 141.862H199.898Z" fill="#393091"/>
<path opacity="0.1" d="M253.658 141.862L199.982 342.416H183.258L236.934 141.862H253.658Z" fill="#393091"/>
<path opacity="0.1" d="M303.161 141.862L249.486 342.416H243.502L297.177 141.862H303.161Z" fill="#393091"/>
</g>
<path d="M123.73 271.598C137.864 271.598 149.322 260.14 149.322 246.006C149.322 231.872 137.864 220.414 123.73 220.414C109.595 220.414 98.1373 231.872 98.1373 246.006C98.1373 260.14 109.595 271.598 123.73 271.598Z" fill="#464646"/>
<path d="M140.516 262.036C149.277 253.275 149.277 239.071 140.516 230.311C131.755 221.55 117.551 221.55 108.79 230.311C100.029 239.071 100.029 253.275 108.79 262.036C117.551 270.797 131.755 270.797 140.516 262.036Z" fill="#464646"/>
<path opacity="0.2" d="M140.516 262.036C149.277 253.275 149.277 239.071 140.516 230.311C131.755 221.55 117.551 221.55 108.79 230.311C100.029 239.071 100.029 253.275 108.79 262.036C117.551 270.797 131.755 270.797 140.516 262.036Z" fill="#EEEEEE"/>
<path d="M119.82 128.01C119.82 128.01 146.997 157.917 126.388 234.896L137.116 238.055C137.116 238.055 167.536 165.45 140 128.939C140.06 128.939 123.587 121.334 119.82 128.01Z" fill="#464646"/>
<path opacity="0.1" d="M119.82 128.01C119.82 128.01 146.997 157.917 126.388 234.896L137.116 238.055C137.116 238.055 167.536 165.45 140 128.939C140.06 128.939 123.587 121.334 119.82 128.01Z" fill="#393091"/>
<path d="M140.83 250.033C142.575 242.639 137.996 235.23 130.602 233.485C123.208 231.74 115.799 236.319 114.054 243.713C112.309 251.107 116.888 258.516 124.282 260.261C131.676 262.006 139.085 257.427 140.83 250.033Z" fill="#464646"/>
<path opacity="0.1" d="M140.83 250.033C142.575 242.639 137.996 235.23 130.602 233.485C123.208 231.74 115.799 236.319 114.054 243.713C112.309 251.107 116.888 258.516 124.282 260.261C131.676 262.006 139.085 257.427 140.83 250.033Z" fill="#393091"/>
<path d="M132.73 257.442C138.562 255.026 141.332 248.339 138.916 242.506C136.5 236.674 129.813 233.904 123.98 236.32C118.148 238.736 115.378 245.423 117.794 251.256C120.21 257.088 126.897 259.858 132.73 257.442Z" fill="#464646"/>
<path opacity="0.2" d="M132.73 257.442C138.562 255.026 141.332 248.339 138.916 242.506C136.5 236.674 129.813 233.904 123.98 236.32C118.148 238.736 115.378 245.423 117.794 251.256C120.21 257.088 126.897 259.858 132.73 257.442Z" fill="#EEEEEE"/>
<path d="M294.65 209.639L293.005 199.638L291.361 209.639L281.348 211.295L291.361 212.94L293.005 222.941L294.65 212.94L304.651 211.295L294.65 209.639Z" fill="url(#paint4_linear_2_105)"/>
<path d="M347.504 105.577L345.549 93.7285L343.606 105.577L331.745 107.532L343.606 109.487L345.549 121.335L347.504 109.487L359.364 107.532L347.504 105.577Z" fill="url(#paint5_linear_2_105)"/>
<path d="M395.124 236.888L393.944 229.736L392.764 236.888L385.624 238.056L392.764 239.236L393.944 246.376L395.124 239.236L402.264 238.056L395.124 236.888Z" fill="url(#paint6_linear_2_105)"/>
<path opacity="0.6" d="M294.65 209.639L293.005 199.638L291.361 209.639L281.348 211.295L291.361 212.94L293.005 222.941L294.65 212.94L304.651 211.295L294.65 209.639Z" fill="#393091"/>
<path d="M164.818 320.84L163.173 310.839L161.528 320.84L151.515 322.485L161.528 324.142L163.173 334.143L164.818 324.142L174.819 322.485L164.818 320.84Z" fill="url(#paint7_linear_2_105)"/>
<path opacity="0.6" d="M164.818 320.84L163.173 310.839L161.528 320.84L151.515 322.485L161.528 324.142L163.173 334.143L164.818 324.142L174.819 322.485L164.818 320.84Z" fill="#393091"/>
<path opacity="0.6" d="M347.504 105.577L345.549 93.7285L343.606 105.577L331.745 107.532L343.606 109.487L345.549 121.335L347.504 109.487L359.364 107.532L347.504 105.577Z" fill="#393091"/>
<path d="M308.335 380.333L306.38 368.485L304.425 380.333L292.564 382.288L304.425 384.243L306.38 396.092L308.335 384.243L320.183 382.288L308.335 380.333Z" fill="url(#paint8_linear_2_105)"/>
<path opacity="0.6" d="M308.335 380.333L306.38 368.485L304.425 380.333L292.564 382.288L304.425 384.243L306.38 396.092L308.335 384.243L320.183 382.288L308.335 380.333Z" fill="#393091"/>
<path opacity="0.6" d="M395.124 236.888L393.944 229.736L392.764 236.888L385.624 238.056L392.764 239.236L393.944 246.376L395.124 239.236L402.264 238.056L395.124 236.888Z" fill="#393091"/>
<path d="M92.1296 120.441L90.9496 113.301L89.7695 120.441L82.6294 121.621L89.7695 122.801L90.9496 129.941L92.1296 122.801L99.2697 121.621L92.1296 120.441Z" fill="url(#paint9_linear_2_105)"/>
<path opacity="0.6" d="M92.1296 120.441L90.9496 113.301L89.7695 120.441L82.6294 121.621L89.7695 122.801L90.9496 129.941L92.1296 122.801L99.2697 121.621L92.1296 120.441Z" fill="#393091"/>
<path d="M534.207 198.184C533.891 202.127 534.091 206.094 534.803 209.985H533.265C531.989 206.175 531.274 202.2 531.143 198.184H534.207Z" fill="url(#paint10_linear_2_105)"/>
<path d="M537.282 200.794L529.248 200.234C529.248 200.234 529.367 201.426 529.534 203.369C529.534 203.989 529.641 204.68 529.701 205.443C530.392 214.455 531.406 232.442 528.783 236.626C525.207 242.288 509.449 229.796 508.972 222.954C508.972 222.954 512.798 208.113 519.962 200.234C520.63 199.502 521.346 198.817 522.108 198.184C522.323 197.993 522.537 197.826 522.764 197.659L522.406 185.739L525.005 184.547C530.31 188.06 534.938 192.502 538.665 197.659L537.282 200.794Z" fill="url(#paint11_linear_2_105)"/>
<path opacity="0.7" d="M528.795 236.626C528.557 237.03 528.215 237.363 527.806 237.592C522.978 240.453 509.425 229.248 508.984 222.954C508.984 222.954 509.056 222.68 509.199 222.179C510.188 218.675 514.646 204.299 522.12 198.184C523.197 198.325 524.251 198.605 525.255 199.019C527.081 200.017 528.573 201.53 529.546 203.369C530.214 211.332 531.632 232.085 528.795 236.626Z" fill="#393091"/>
<path opacity="0.2" d="M527.806 237.592C522.978 240.453 509.425 229.248 508.984 222.954C508.984 222.954 509.056 222.68 509.199 222.179C514.872 218.973 530.094 229.999 527.806 237.592Z" fill="white"/>
<path opacity="0.2" d="M529.546 203.333C529.546 203.953 529.653 204.644 529.713 205.407L519.974 200.198C520.641 199.466 521.358 198.781 522.12 198.148C522.334 197.957 522.549 197.79 522.775 197.623L522.418 185.703L525.016 184.511C525.016 184.511 524.897 189.339 526.208 190.4C527.52 191.461 536.233 198.303 537.294 200.782L529.248 200.234C529.248 200.234 529.379 201.414 529.546 203.333Z" fill="white"/>
<path d="M422.481 425.391L412.813 426.405L412.325 420.802L411.002 405.556L420.669 404.531L422.135 421.374L422.481 425.391Z" fill="#F9B3A9"/>
<path d="M506.493 424.164H497.124L496.659 422.054L496.599 421.791L493.691 408.262L493.619 407.988L492.499 402.803H501.88L506.493 424.164Z" fill="#F9B3A9"/>
<path opacity="0.2" d="M420.669 404.531L422.135 421.374L412.325 420.802L411.002 405.556L420.669 404.531Z" fill="white"/>
<path opacity="0.2" d="M506.219 422.983H506.207L496.611 421.791H496.599L493.762 408.739H493.774L503.298 409.49L506.135 422.566L506.219 422.983Z" fill="white"/>
<path d="M495.872 423.604H507.256C507.442 423.605 507.622 423.669 507.768 423.786C507.913 423.903 508.014 424.065 508.054 424.247L509.902 432.591C509.94 432.794 509.934 433.002 509.883 433.202C509.832 433.401 509.738 433.587 509.607 433.746C509.476 433.906 509.312 434.034 509.126 434.123C508.94 434.212 508.737 434.258 508.531 434.26C504.848 434.201 502.166 433.974 497.541 433.974C494.692 433.974 486.098 434.272 482.164 434.272C478.23 434.272 477.718 430.386 479.327 430.028C486.551 428.455 491.986 426.274 494.299 424.2C494.726 423.805 495.29 423.592 495.872 423.604Z" fill="#464646"/>
<path d="M411.788 423.305H423.16C423.346 423.306 423.527 423.37 423.672 423.487C423.817 423.604 423.918 423.767 423.959 423.949L425.806 432.293C425.845 432.495 425.838 432.704 425.787 432.903C425.736 433.103 425.642 433.289 425.511 433.448C425.38 433.607 425.216 433.736 425.03 433.824C424.845 433.913 424.641 433.96 424.435 433.962C420.752 433.902 418.07 433.676 413.445 433.676C410.596 433.676 402.002 433.974 398.068 433.974C394.135 433.974 393.622 430.088 395.231 429.73C402.455 428.157 407.89 425.975 410.203 423.901C410.634 423.504 411.202 423.29 411.788 423.305Z" fill="#464646"/>
<path d="M410.119 417.011L423.947 417.464C418.916 325.012 416.568 320.292 461.447 276.629C462.496 289.836 463.676 303.544 464.832 314.964C465.559 322.032 465.774 328.195 466.954 332.725C474.929 363.347 494.155 417.535 494.155 417.535L507.649 418.143C507.649 418.143 490.758 343.87 489.018 319.66C486.741 287.905 494.155 253.528 489.948 228.675L442.804 236.709C400.059 299.229 392.228 312.747 410.119 417.011Z" fill="url(#paint12_linear_2_105)"/>
<path opacity="0.3" d="M410.119 417.011L423.947 417.464C418.916 325.012 416.568 320.292 461.447 276.629C462.496 289.836 463.676 303.544 464.832 314.964C465.559 322.032 465.774 328.195 466.954 332.725C474.929 363.347 494.155 417.535 494.155 417.535L507.649 418.143C507.649 418.143 490.758 343.87 489.018 319.66C486.741 287.905 494.155 253.528 489.948 228.675L442.804 236.709C400.059 299.229 392.228 312.747 410.119 417.011Z" fill="#393091"/>
<path d="M322.162 151.827C318.395 157.251 312.423 176.633 312.423 182.974C312.423 189.315 312.304 187.134 315.88 189.029C319.456 190.925 331.03 197.278 336.692 201.796C342.354 206.313 343.916 203.357 346.121 207.982C348.326 212.607 361.724 174.499 364.609 170.291C367.494 166.083 364.037 168.014 361.212 165.523C358.387 163.032 345.895 154.95 339.088 151.899C332.282 148.847 329.147 153.698 327.252 151.899C325.356 150.099 322.162 151.827 322.162 151.827Z" fill="#F0F0F0"/>
<path d="M384.933 185.156C384.933 185.156 374.967 209.186 371.248 210.068C367.899 210.855 346.3 176.979 346.3 176.979C346.3 176.979 343.475 166.453 343.153 163.39C342.831 160.326 329.326 166.966 329.004 168.801C328.682 170.637 332.961 182.95 338.373 183.892C338.373 183.892 356.873 225.708 368.555 228.533C380.236 231.358 404.624 191.128 404.624 191.128L384.933 185.156Z" fill="#F9B3A9"/>
<path d="M449.897 148.656C449.897 148.656 482.236 151.601 488.458 154.485C494.68 157.37 521.583 194.322 521.583 194.322C521.583 194.322 532.788 198.148 532.311 202.177C531.835 206.206 531.429 213.549 528.223 212.404C525.016 211.26 516.672 204.347 516.672 204.347L516.327 200.771C516.327 200.771 484.739 167.144 483.463 166.203C482.188 165.261 450.445 164.248 450.445 164.248L449.897 148.656Z" fill="#F9B3A9"/>
<path d="M424.936 145.379C445.2 141.862 457.502 145.378 468.969 148.144L465.881 168.253L442.041 172.27L424.936 145.379Z" fill="#464646"/>
<path d="M386.899 151.923C387.269 152.197 387.65 152.459 388.091 152.697C390.347 154.056 392.961 154.7 395.589 154.545C396.255 154.512 396.917 154.424 397.568 154.283C400.087 153.797 402.377 152.496 404.084 150.581C405.792 148.667 406.824 146.244 407.02 143.686C407.664 137.046 404.1 132.874 398.676 125.365C397.43 123.591 395.751 122.166 393.798 121.224C391.846 120.282 389.685 119.854 387.521 119.982C385.357 120.11 383.262 120.789 381.434 121.954C379.606 123.119 378.106 124.732 377.077 126.64C372.309 135.258 380.057 146.737 386.899 151.923Z" fill="#F9B3A9"/>
<path opacity="0.2" d="M395.541 154.545C396.207 154.512 396.869 154.424 397.52 154.282C399.245 153.941 400.871 153.219 402.282 152.169C403.692 151.12 404.851 149.769 405.673 148.215C404.645 147.612 403.543 147.144 402.395 146.82C399.419 148.687 397.04 151.367 395.541 154.545Z" fill="white"/>
<path d="M417.593 152.077C416.687 158.18 407.044 164.069 407.044 164.069C407.044 164.069 400.429 167.001 400.19 164.391C402.944 161.256 403.277 158.514 402.36 156.047C401.746 154.584 400.846 153.259 399.713 152.149C399.105 151.509 398.46 150.904 397.782 150.337L402.014 133.649C404.887 140.062 411.037 151.088 417.593 152.077Z" fill="#F9B3A9"/>
<path d="M377.304 134.043C377.769 133.936 378.305 134.186 378.818 135.306C380.176 138.322 384.778 141.958 388.282 142.661C391.787 143.364 398.128 149.002 398.128 149.002C398.128 149.002 402.324 143.4 407.783 142.029C407.783 142.029 410.751 130.264 404.028 121.765L377.304 134.043Z" fill="#464646"/>
<path d="M389.963 139.383C390.376 140.17 390.609 141.039 390.646 141.927C390.683 142.816 390.523 143.701 390.177 144.52C389.224 146.332 386.601 145.057 385.028 142.732C383.669 140.658 382.453 137.154 384.313 136.224C386.172 135.294 388.89 137.034 389.963 139.383Z" fill="#F9B3A9"/>
<path d="M404.624 125.222C404.624 125.222 407.414 119.452 397.782 114.148C388.151 108.844 376.708 117.331 373.287 123.1C371.695 123.73 370.311 124.793 369.291 126.169C368.272 127.544 367.657 129.177 367.517 130.884C366.695 137.13 375.301 139.132 375.301 139.132C375.301 139.132 372.226 137.213 371.642 135.401C371.642 135.401 372.834 138.286 378.603 137.261C378.154 137.128 377.743 136.889 377.407 136.563C377.071 136.237 376.819 135.834 376.672 135.389C376.672 135.389 381.011 138.703 386.971 133.661C392.931 128.619 404.624 125.222 404.624 125.222Z" fill="#464646"/>
<path opacity="0.2" d="M461.447 276.57C462.496 289.777 463.688 303.461 464.88 314.928C466.573 298.443 468.647 286.69 468.647 286.69C468.647 286.69 470.59 285.093 475.93 276.57C481.27 268.047 475.93 252.134 475.93 252.134C476.049 266.915 461.447 276.57 461.447 276.57Z" fill="white"/>
<path d="M408.57 415.521L409.237 419.395H425.484V415.819L408.57 415.521Z" fill="url(#paint13_linear_2_105)"/>
<path d="M492.558 417.012L494.108 420.588H508.912L508.626 417.012H492.558Z" fill="url(#paint14_linear_2_105)"/>
<path d="M388.592 170.375C388.592 170.375 405.721 145.343 432.875 144.401C432.875 144.401 477.67 182.009 493.238 234.314L433.197 250.918C433.197 250.918 412.861 202.392 388.592 170.375Z" fill="#464646"/>
<path d="M388.592 170.374C381.321 183.033 375.611 200.007 375.611 200.007L393.992 212.523L408.486 196.562C408.486 196.562 408.677 184.642 400.655 176.739C392.633 168.836 388.592 170.374 388.592 170.374Z" fill="#464646"/>
<path opacity="0.8" d="M493.19 234.326L433.149 250.93C425.3 232.669 416.393 214.882 406.472 197.66C406.472 196.992 405.03 169.671 402.801 158.097C402.801 158.097 410.668 151.16 418.916 149.574C418.916 149.574 438.489 149.574 457.597 170.279C470.637 186.169 485.49 208.447 493.19 234.326Z" fill="#393091"/>
<path opacity="0.7" d="M408.57 415.521L409.237 419.395H425.484V415.819L408.57 415.521Z" fill="#393091"/>
<path opacity="0.7" d="M492.558 417.012L494.108 420.588H508.912L508.626 417.012H492.558Z" fill="#393091"/>
<defs>
<linearGradient id="paint0_linear_2_105" x1="169.071" y1="434.235" x2="306.451" y2="434.235" gradientUnits="userSpaceOnUse">
<stop stop-color="#00F0FF"/>
<stop offset="0.46875" stop-color="#5773FF"/>
<stop offset="1" stop-color="#FF007A"/>
</linearGradient>
<linearGradient id="paint1_linear_2_105" x1="90.9496" y1="357.863" x2="413.886" y2="357.863" gradientUnits="userSpaceOnUse">
<stop stop-color="#00F0FF"/>
<stop offset="0.46875" stop-color="#5773FF"/>
<stop offset="1" stop-color="#FF007A"/>
</linearGradient>
<linearGradient id="paint2_linear_2_105" x1="104.55" y1="342.415" x2="406.806" y2="342.415" gradientUnits="userSpaceOnUse">
<stop stop-color="#00F0FF"/>
<stop offset="0.46875" stop-color="#5773FF"/>
<stop offset="1" stop-color="#FF007A"/>
</linearGradient>
<linearGradient id="paint3_linear_2_105" x1="286.151" y1="282.147" x2="294.209" y2="282.147" gradientUnits="userSpaceOnUse">
<stop stop-color="#00F0FF"/>
<stop offset="0.46875" stop-color="#5773FF"/>
<stop offset="1" stop-color="#FF007A"/>
</linearGradient>
<linearGradient id="paint4_linear_2_105" x1="281.348" y1="222.941" x2="304.651" y2="222.941" gradientUnits="userSpaceOnUse">
<stop stop-color="#00F0FF"/>
<stop offset="0.46875" stop-color="#5773FF"/>
<stop offset="1" stop-color="#FF007A"/>
</linearGradient>
<linearGradient id="paint5_linear_2_105" x1="331.745" y1="121.335" x2="359.364" y2="121.335" gradientUnits="userSpaceOnUse">
<stop stop-color="#00F0FF"/>
<stop offset="0.46875" stop-color="#5773FF"/>
<stop offset="1" stop-color="#FF007A"/>
</linearGradient>
<linearGradient id="paint6_linear_2_105" x1="385.624" y1="246.376" x2="402.264" y2="246.376" gradientUnits="userSpaceOnUse">
<stop stop-color="#00F0FF"/>
<stop offset="0.46875" stop-color="#5773FF"/>
<stop offset="1" stop-color="#FF007A"/>
</linearGradient>
<linearGradient id="paint7_linear_2_105" x1="151.515" y1="334.143" x2="174.819" y2="334.143" gradientUnits="userSpaceOnUse">
<stop stop-color="#00F0FF"/>
<stop offset="0.46875" stop-color="#5773FF"/>
<stop offset="1" stop-color="#FF007A"/>
</linearGradient>
<linearGradient id="paint8_linear_2_105" x1="292.564" y1="396.092" x2="320.183" y2="396.092" gradientUnits="userSpaceOnUse">
<stop stop-color="#00F0FF"/>
<stop offset="0.46875" stop-color="#5773FF"/>
<stop offset="1" stop-color="#FF007A"/>
</linearGradient>
<linearGradient id="paint9_linear_2_105" x1="82.6294" y1="129.941" x2="99.2697" y2="129.941" gradientUnits="userSpaceOnUse">
<stop stop-color="#00F0FF"/>
<stop offset="0.46875" stop-color="#5773FF"/>
<stop offset="1" stop-color="#FF007A"/>
</linearGradient>
<linearGradient id="paint10_linear_2_105" x1="531.143" y1="209.985" x2="534.803" y2="209.985" gradientUnits="userSpaceOnUse">
<stop stop-color="#00F0FF"/>
<stop offset="0.46875" stop-color="#5773FF"/>
<stop offset="1" stop-color="#FF007A"/>
</linearGradient>
<linearGradient id="paint11_linear_2_105" x1="508.972" y1="238.058" x2="538.665" y2="238.058" gradientUnits="userSpaceOnUse">
<stop stop-color="#00F0FF"/>
<stop offset="0.46875" stop-color="#5773FF"/>
<stop offset="1" stop-color="#FF007A"/>
</linearGradient>
<linearGradient id="paint12_linear_2_105" x1="401.14" y1="418.143" x2="507.649" y2="418.143" gradientUnits="userSpaceOnUse">
<stop stop-color="#00F0FF"/>
<stop offset="0.46875" stop-color="#5773FF"/>
<stop offset="1" stop-color="#FF007A"/>
</linearGradient>
<linearGradient id="paint13_linear_2_105" x1="408.57" y1="419.395" x2="425.484" y2="419.395" gradientUnits="userSpaceOnUse">
<stop stop-color="#00F0FF"/>
<stop offset="0.46875" stop-color="#5773FF"/>
<stop offset="1" stop-color="#FF007A"/>
</linearGradient>
<linearGradient id="paint14_linear_2_105" x1="492.558" y1="420.588" x2="508.912" y2="420.588" gradientUnits="userSpaceOnUse">
<stop stop-color="#00F0FF"/>
<stop offset="0.46875" stop-color="#5773FF"/>
<stop offset="1" stop-color="#FF007A"/>
</linearGradient>
</defs>
</svg>
