<svg width="50" height="42" viewBox="0 0 50 42" fill="none" xmlns="http://www.w3.org/2000/svg">
<path d="M44.8605 10.6782C44.8923 11.1223 44.8923 11.5665 44.8923 12.0107C44.8923 25.5576 34.5814 41.1669 15.7361 41.1669C9.93021 41.1669 4.53683 39.4853 0 36.5666C0.824906 36.6618 1.61798 36.6935 2.47462 36.6935C7.26517 36.6935 11.6751 35.0755 15.1967 32.3154C10.6916 32.2201 6.91624 29.2696 5.61545 25.2087C6.25002 25.3038 6.8845 25.3673 7.55081 25.3673C8.47083 25.3673 9.39095 25.2403 10.2475 25.0184C5.55207 24.0665 2.03038 19.9422 2.03038 14.9612V14.8343C3.39454 15.5958 4.98098 16.0716 6.66233 16.135C3.90216 14.2949 2.09386 11.154 2.09386 7.60071C2.09386 5.69719 2.60138 3.95226 3.48976 2.4294C8.53421 8.64769 16.1168 12.7085 24.6192 13.1528C24.4606 12.3914 24.3654 11.5983 24.3654 10.8051C24.3654 5.15783 28.934 0.557617 34.6129 0.557617C37.5634 0.557617 40.2284 1.79493 42.1003 3.79366C44.4162 3.34952 46.637 2.49288 48.6041 1.31905C47.8426 3.69855 46.2246 5.69729 44.099 6.96624C46.1612 6.74426 48.16 6.17307 50 5.38C48.6043 7.41038 46.8593 9.21869 44.8605 10.6782Z" fill="url(#paint0_linear_2_4001)"/>
<defs>
<linearGradient id="paint0_linear_2_4001" x1="0" y1="41.1669" x2="50" y2="41.1669" gradientUnits="userSpaceOnUse">
<stop stop-color="#00F0FF"/>
<stop offset="1" stop-color="#5773FF"/>
</linearGradient>
</defs>
</svg>
