<svg xmlns="http://www.w3.org/2000/svg" fill="none" viewBox="0 0 571 552"><path fill="#F264E0" d="m498 315-15 6 52 128 15-6-52-128Z"/><path fill="url(#a)" d="M212 305a50 50 0 1 0 0-100 50 50 0 0 0 0 100Z"/><path fill="url(#b)" d="M472 329c0 98-58 177-130 177-71 0-130-79-130-177 0-97 59-127 130-127 72 0 130 30 130 127Z"/><path fill="url(#c)" d="M472 329c0 98-58 177-130 177-71 0-130-79-130-177 0-97 59-127 130-127 72 0 130 30 130 127Z"/><path fill="#393091" d="M342 306c49 0 89-23 89-51s-40-51-89-51c-48 0-88 23-88 51s40 51 88 51Z"/><path fill="#453C9E" d="M280 232c34-20 91-20 125 0 14 9 23 19 25 30 4-16-4-32-25-43-34-20-91-20-125 0-21 11-29 27-26 43 3-11 11-21 26-30Z"/><path fill="url(#d)" d="m240 133 16-28c9-9 17-22 21-35l16-28-23-14-3-1c-6-3-15-2-25 3a83 83 0 0 0-37 65c0 12 4 20 10 24l25 14Z"/><path fill="#BCBEFF" d="M293 102c14-25 14-52 0-61-15-8-39 6-53 31-15 25-15 53 0 61 14 8 38-5 53-31Z"/><path fill="url(#e)" d="M348 265a133 133 0 1 0 0-265 133 133 0 0 0 0 265Z"/><path fill="url(#f)" d="M348 265a133 133 0 1 0 0-265 133 133 0 0 0 0 265Z"/><path fill="url(#g)" d="m422 222 16-27c9-10 17-23 20-36l17-28-24-13-2-2c-7-3-16-2-25 3a83 83 0 0 0-38 65c0 12 4 20 11 24l25 14Z"/><path fill="#BCBEFF" d="M474 192c15-26 15-53 0-61-14-9-38 5-52 30-15 26-15 53 0 61 14 9 38-5 52-30Z"/><path fill="#fff" d="M413 198c0-24 16-53 37-64 7-5 14-6 20-5-6-2-14 0-22 4a83 83 0 0 0-37 65c0 16 7 25 18 27-10-3-16-12-16-27Z"/><path fill="#393091" d="M467 187c10-18 10-37 0-43-11-6-27 3-38 22-10 18-10 37 0 43 11 6 28-3 38-22Z"/><path fill="#453C9E" d="M463 142c3 3 5 8 5 15 0 17-12 37-27 46-6 3-11 4-15 3 4 6 13 7 22 1 15-8 27-29 27-46 0-11-5-17-12-19Z"/><path fill="#393091" d="M291 220c17-7 21-37 8-66-12-30-36-48-53-41s-21 37-9 67c13 29 37 48 54 40Z"/><path fill="#F264E0" d="M289 173c-1 9-8 12-16 7-8-6-13-19-11-28 1-10 8-13 15-7 8 6 13 18 12 28Z"/><path fill="#453C9E" d="M272 210a90 90 0 0 1-31-76c1-11 5-18 11-23-11 1-19 11-21 27-4 26 10 60 31 76 13 9 24 10 33 4-7 1-15-2-23-8Z"/><path fill="#F264E0" d="M264 213a90 90 0 0 1-32-76c2-12 7-21 14-24-8 3-14 11-15 24-4 26 10 61 31 77 11 8 22 10 30 6-7 3-17 1-28-7Z"/><path fill="url(#h)" d="M491 368a50 50 0 1 0 0-101 50 50 0 0 0 0 101Z"/><path fill="url(#i)" d="M491 368a50 50 0 1 0 0-101 50 50 0 0 0 0 101Z"/><path fill="url(#j)" d="M571 485c-3 23-24 69-44 67-19-3-29-52-26-76s21-41 40-39 33 24 30 48Z"/><path fill="url(#k)" d="M571 485c-3 23-24 69-44 67-19-3-29-52-26-76s21-41 40-39 33 24 30 48Z"/><path fill="#F264E0" d="M79 331c-3 0-6-2-7-5-2-4-1-9 3-11l104-54c4-2 9-1 11 3s1 9-3 11L83 330l-4 1Z"/><path fill="url(#l)" d="M81 361c-21 11-70 20-79 4-10-17 24-54 46-65 21-12 45-8 55 9 9 17-1 40-22 52Z"/><path fill="url(#m)" d="M81 361c-21 11-70 20-79 4-10-17 24-54 46-65 21-12 45-8 55 9 9 17-1 40-22 52Z"/><defs><radialGradient id="a" cx="0" cy="0" r="1" gradientTransform="rotate(11 -253 2359) scale(290.77)" gradientUnits="userSpaceOnUse"><stop stop-color="#C0BFF6"/><stop offset="1" stop-color="#393091"/></radialGradient><radialGradient id="b" cx="0" cy="0" r="1" gradientTransform="matrix(223.506 0 0 304.251 419 303)" gradientUnits="userSpaceOnUse"><stop stop-color="#C0BFF6"/><stop offset="1" stop-color="#393091"/></radialGradient><radialGradient id="d" cx="0" cy="0" r="1" gradientTransform="translate(211 -73) scale(157.395)" gradientUnits="userSpaceOnUse"><stop stop-color="#C0BFF6"/><stop offset="1" stop-color="#393091"/></radialGradient><radialGradient id="e" cx="0" cy="0" r="1" gradientTransform="translate(430 113) scale(224.192)" gradientUnits="userSpaceOnUse"><stop stop-color="#C0BFF6"/><stop offset="1" stop-color="#393091"/></radialGradient><radialGradient id="g" cx="0" cy="0" r="1" gradientTransform="translate(429 111) scale(106.47)" gradientUnits="userSpaceOnUse"><stop stop-color="#C0BFF6"/><stop offset="1" stop-color="#393091"/></radialGradient><radialGradient id="h" cx="0" cy="0" r="1" gradientTransform="rotate(11 -1193 2796) scale(105.091)" gradientUnits="userSpaceOnUse"><stop stop-color="#C0BFF6"/><stop offset="1" stop-color="#393091"/></radialGradient><radialGradient id="j" cx="0" cy="0" r="1" gradientTransform="matrix(88.71032 10.58254 -17.43243 146.13089 584 445)" gradientUnits="userSpaceOnUse"><stop stop-color="#C0BFF6"/><stop offset="1" stop-color="#393091"/></radialGradient><radialGradient id="l" cx="0" cy="0" r="1" gradientTransform="matrix(42.94355 78.34189 -129.05307 70.74117 143 301)" gradientUnits="userSpaceOnUse"><stop stop-color="#C0BFF6"/><stop offset="1" stop-color="#393091"/></radialGradient><linearGradient id="c" x1="342.4" x2="342.4" y1="506.5" y2="202.4" gradientUnits="userSpaceOnUse"><stop stop-color="#F264E0"/><stop offset="0" stop-color="#EF63DF"/><stop offset=".1" stop-color="#BF56CA"/><stop offset=".3" stop-color="#964AB9"/><stop offset=".4" stop-color="#7441AA"/><stop offset=".5" stop-color="#5A399F"/><stop offset=".7" stop-color="#483497"/><stop offset=".8" stop-color="#3D3193"/><stop offset="1" stop-color="#393091"/></linearGradient><linearGradient id="f" x1="329.1" x2="366" y1="264" y2="1.3" gradientUnits="userSpaceOnUse"><stop stop-color="#F264E0"/><stop offset="0" stop-color="#EF63DF"/><stop offset=".1" stop-color="#BF56CA"/><stop offset=".3" stop-color="#964AB9"/><stop offset=".4" stop-color="#7441AA"/><stop offset=".5" stop-color="#5A399F"/><stop offset=".7" stop-color="#483497"/><stop offset=".8" stop-color="#3D3193"/><stop offset="1" stop-color="#393091"/></linearGradient><linearGradient id="i" x1="449.6" x2="531.1" y1="347.4" y2="288.1" gradientUnits="userSpaceOnUse"><stop stop-color="#F264E0"/><stop offset="0" stop-color="#EF63DF"/><stop offset=".1" stop-color="#BF56CA"/><stop offset=".3" stop-color="#964AB9"/><stop offset=".4" stop-color="#7441AA"/><stop offset=".5" stop-color="#5A399F"/><stop offset=".7" stop-color="#483497"/><stop offset=".8" stop-color="#3D3193"/><stop offset="1" stop-color="#393091"/></linearGradient><linearGradient id="k" x1="499.8" x2="569.1" y1="490.3" y2="498.5" gradientUnits="userSpaceOnUse"><stop stop-color="#F264E0"/><stop offset="0" stop-color="#EF63DF"/><stop offset=".1" stop-color="#BF56CA"/><stop offset=".3" stop-color="#964AB9"/><stop offset=".4" stop-color="#7441AA"/><stop offset=".5" stop-color="#5A399F"/><stop offset=".7" stop-color="#483497"/><stop offset=".8" stop-color="#3D3193"/><stop offset="1" stop-color="#393091"/></linearGradient><linearGradient id="m" x1="101.7" x2="24.6" y1="335.6" y2="315.8" gradientUnits="userSpaceOnUse"><stop stop-color="#F264E0"/><stop offset="0" stop-color="#EF63DF"/><stop offset=".1" stop-color="#BF56CA"/><stop offset=".3" stop-color="#964AB9"/><stop offset=".4" stop-color="#7441AA"/><stop offset=".5" stop-color="#5A399F"/><stop offset=".7" stop-color="#483497"/><stop offset=".8" stop-color="#3D3193"/><stop offset="1" stop-color="#393091"/></linearGradient></defs></svg>