<svg width="99" height="100" viewBox="0 0 99 100" fill="none" xmlns="http://www.w3.org/2000/svg">
<path d="M32.725 57.8924H19.69C18.3615 52.845 18.3615 47.5398 19.69 42.4924H32.725C32.3859 45.0455 32.2022 47.6169 32.175 50.1924C32.2022 52.7678 32.3859 55.3392 32.725 57.8924ZM22.88 34.7924H34.1C35.3831 30.0416 37.1909 25.4483 39.49 21.0974C32.4739 23.4937 26.5698 28.3617 22.88 34.7924ZM76.12 34.7924C72.4012 28.3646 66.4816 23.5 59.455 21.0974C61.7858 25.4275 63.5774 30.0267 64.79 34.7924H76.12ZM49.5 80.8274C52.7683 76.1833 55.2576 71.0375 56.87 65.5924H42.13C43.7424 71.0375 46.2317 76.1833 49.5 80.8274ZM49.5 19.5024C46.2289 24.1648 43.7396 29.3292 42.13 34.7924H56.87C55.2604 29.3292 52.7711 24.1648 49.5 19.5024ZM22.88 65.5924C26.5929 72.0035 32.4887 76.8646 39.49 79.2874C37.1909 74.9365 35.3831 70.3432 34.1 65.5924H22.88ZM99 11.6924V88.6924C99 91.6098 97.8411 94.4077 95.7782 96.4706C93.7153 98.5335 90.9174 99.6924 88 99.6924H11C8.08262 99.6924 5.28473 98.5335 3.22182 96.4706C1.15892 94.4077 0 91.6098 0 88.6924V11.6924C0 8.775 1.15892 5.97711 3.22182 3.91421C5.28473 1.85131 8.08262 0.692383 11 0.692383H88C90.9174 0.692383 93.7153 1.85131 95.7782 3.91421C97.8411 5.97711 99 8.775 99 11.6924ZM88 50.1924C88 42.5778 85.742 35.1342 81.5116 28.8029C77.2812 22.4716 71.2683 17.537 64.2333 14.623C57.1984 11.709 49.4573 10.9466 41.989 12.4321C34.5208 13.9177 27.6607 17.5844 22.2764 22.9688C16.8921 28.3531 13.2253 35.2131 11.7398 42.6814C10.2542 50.1497 11.0167 57.8907 13.9306 64.9257C16.8446 71.9607 21.7793 77.9735 28.1105 82.204C34.4418 86.4344 41.8854 88.6924 49.5 88.6924C59.7108 88.6924 69.5035 84.6361 76.7236 77.416C83.9438 70.1958 88 60.4032 88 50.1924ZM66.825 50.1924C66.7978 52.7678 66.6141 55.3392 66.275 57.8924H79.31C80.6385 52.845 80.6385 47.5398 79.31 42.4924H66.275C66.6141 45.0455 66.7978 47.6169 66.825 50.1924ZM59.455 79.2874C66.4743 76.8716 72.3897 72.0104 76.12 65.5924H64.79C63.5774 70.3581 61.7858 74.9573 59.455 79.2874ZM40.48 42.4924C39.659 47.5929 39.659 52.7919 40.48 57.8924H58.52C58.8966 55.3425 59.0987 52.7698 59.125 50.1924C59.1003 47.6149 58.8982 45.0421 58.52 42.4924H40.48Z" fill="white"/>
</svg>
