<svg width="94" height="100" viewBox="0 0 94 100" fill="none" xmlns="http://www.w3.org/2000/svg">
<path d="M47.018 36.7135C43.7015 36.7135 40.5958 37.997 38.2443 40.3427C35.9038 42.6884 34.6061 45.7865 34.6061 49.0949C34.6061 52.4032 35.9038 55.5013 38.2443 57.847C40.5958 60.1817 43.7015 61.4763 47.018 61.4763C50.3346 61.4763 53.4403 60.1817 55.7918 57.847C58.1322 55.5013 59.43 52.4032 59.43 49.0949C59.43 45.7865 58.1322 42.6884 55.7918 40.3427C54.6433 39.1882 53.2762 38.2728 51.77 37.6498C50.2638 37.0268 48.6486 36.7085 47.018 36.7135ZM92.7504 62.7708L85.4962 56.5857C85.8401 54.4834 86.0175 52.3368 86.0175 50.2014C86.0175 48.0659 85.8401 45.9082 85.4962 43.817L92.7504 37.6319C93.2984 37.1639 93.6906 36.5406 93.8749 35.8449C94.0591 35.1492 94.0267 34.414 93.782 33.7371L93.6821 33.4494C91.6857 27.8804 88.6943 22.7184 84.8529 18.2133L84.6532 17.981C84.1868 17.4338 83.5651 17.0405 82.87 16.8529C82.175 16.6652 81.4394 16.6921 80.7599 16.9298L71.7532 20.1275C68.4256 17.4056 64.7209 15.2591 60.7056 13.7653L58.9641 4.37139C58.8328 3.66372 58.4886 3.01268 57.9775 2.50476C57.4663 1.99683 56.8123 1.65608 56.1024 1.52777L55.8029 1.47244C50.0351 0.432363 43.9566 0.432363 38.1888 1.47244L37.8893 1.52777C37.1794 1.65608 36.5254 1.99683 36.0143 2.50476C35.5031 3.01268 35.159 3.66372 35.0276 4.37139L33.275 13.8096C29.2978 15.3152 25.5927 17.4566 22.305 20.1496L13.2318 16.9298C12.5526 16.6902 11.8163 16.6624 11.1209 16.8501C10.4255 17.0379 9.80381 17.4323 9.33849 17.981L9.13883 18.2133C5.30424 22.7232 2.3136 27.884 0.30959 33.4494L0.209762 33.7371C-0.289379 35.1202 0.121026 36.6692 1.24132 37.6319L8.58423 43.8834C8.24038 45.9636 8.074 48.088 8.074 50.1903C8.074 52.3147 8.24038 54.4391 8.58423 56.4972L1.2635 62.7487C0.71551 63.2167 0.323305 63.84 0.139039 64.5357C-0.0452268 65.2314 -0.0128219 65.9666 0.231946 66.6435L0.331774 66.9312C2.33943 72.4967 5.30099 77.6418 9.16101 82.1673L9.36067 82.3996C9.82714 82.9467 10.4488 83.34 11.1438 83.5277C11.8389 83.7153 12.5745 83.6885 13.254 83.4508L22.3272 80.2309C25.6326 82.9418 29.3152 85.0883 33.2972 86.571L35.0498 96.0092C35.1812 96.7169 35.5253 97.3679 36.0364 97.8758C36.5476 98.3837 37.2016 98.7245 37.9115 98.8528L38.211 98.9081C44.0356 99.9538 50.0005 99.9538 55.8251 98.9081L56.1246 98.8528C56.8345 98.7245 57.4885 98.3837 57.9996 97.8758C58.5108 97.3679 58.8549 96.7169 58.9863 96.0092L60.7278 86.6152C64.7431 85.1105 68.4478 82.975 71.7754 80.2531L80.7821 83.4508C81.4613 83.6904 82.1976 83.7182 82.893 83.5304C83.5884 83.3427 84.2101 82.9483 84.6754 82.3996L84.8751 82.1673C88.7351 77.6197 91.6967 72.4967 93.7043 66.9312L93.8041 66.6435C94.2811 65.2715 93.8707 63.7335 92.7504 62.7708ZM47.018 68.5466C36.2477 68.5466 27.5183 59.8387 27.5183 49.0949C27.5183 38.3511 36.2477 29.6432 47.018 29.6432C57.7884 29.6432 66.5178 38.3511 66.5178 49.0949C66.5178 59.8387 57.7884 68.5466 47.018 68.5466Z" fill="white"/>
</svg>
