<svg xmlns="http://www.w3.org/2000/svg" width="90" height="99" fill="none" viewBox="0 0 90 99"><path fill="#fff" d="M44.9986 0.00891583C38.6128 -0.225411 33.6678 4.21283 28.313 7.00159C21.0299 11.3444 13.5302 15.3507 6.39219 19.9187C1.72334 23.736 -0.421797 29.8786 0.0685021 35.8104C0.0956858 46.3276 0.0143328 56.8471 0.109575 67.3627C0.714165 73.7298 5.10324 79.1335 10.7511 81.7971C19.8178 87.0316 28.8313 92.3634 37.9311 97.5368C43.7158 100.19 50.5639 99.0743 55.6812 95.4843C64.7213 90.2022 73.8173 85.0135 82.8219 79.6724C88.0017 75.9627 90.4605 69.4377 89.9289 63.1857C89.9018 52.6684 89.9833 42.149 89.8879 31.6335C89.2827 25.2667 84.8944 19.8618 79.2459 17.1994C70.1791 11.966 61.164 6.63773 52.0646 1.46378C49.8621 0.434656 47.4154 0.0159017 44.9986 0.00891583ZM39.3049 26.4934H50.6943V72.5045H39.3049V26.4934ZM53.6371 36.508H65.0209V72.5045H53.6371V36.508ZM24.9747 55.2861H36.3621V72.5045H24.9747V55.2861Z"/></svg>