<svg width="99" height="99" viewBox="0 0 99 99" fill="none" xmlns="http://www.w3.org/2000/svg">
<path d="M84.8572 0H99V14.1429H84.8572V0ZM84.8572 21.2143H99V35.3571H84.8572V21.2143ZM63.6429 0H77.7857V14.1429H63.6429V0ZM63.6429 21.2143H77.7857V35.3571H63.6429V21.2143Z" fill="white"/>
<path d="M91.9286 49.5001V70.7144H7.07143V14.143H49.5V7.07153H7.07143C5.19597 7.07153 3.39732 7.81656 2.07117 9.14271C0.745023 10.4689 0 12.2675 0 14.143V70.7144C0 72.5899 0.745023 74.3885 2.07117 75.7146C3.39732 77.0408 5.19597 77.7858 7.07143 77.7858H35.3571V91.9287H21.2143V99.0001H77.7857V91.9287H63.6429V77.7858H91.9286C93.804 77.7858 95.6027 77.0408 96.9288 75.7146C98.255 74.3885 99 72.5899 99 70.7144V49.5001H91.9286ZM56.5714 91.9287H42.4286V77.7858H56.5714V91.9287Z" fill="white"/>
</svg>
