<svg width="50" height="51" viewBox="0 0 50 51" fill="none" xmlns="http://www.w3.org/2000/svg">
<path d="M44.6429 0.557617H5.35714C3.93634 0.557617 2.57373 1.12203 1.56907 2.12669C0.564412 3.13135 0 4.49396 0 5.91476L0 45.2005C0 46.6213 0.564412 47.9839 1.56907 48.9885C2.57373 49.9932 3.93634 50.5576 5.35714 50.5576H20.6752V33.5587H13.644V25.5576H20.6752V19.4594C20.6752 12.523 24.8047 8.69155 31.1295 8.69155C34.1585 8.69155 37.3259 9.23172 37.3259 9.23172V16.0398H33.8359C30.3973 16.0398 29.3248 18.1737 29.3248 20.3623V25.5576H37.0011L35.7734 33.5587H29.3248V50.5576H44.6429C46.0637 50.5576 47.4263 49.9932 48.4309 48.9885C49.4356 47.9839 50 46.6213 50 45.2005V5.91476C50 4.49396 49.4356 3.13135 48.4309 2.12669C47.4263 1.12203 46.0637 0.557617 44.6429 0.557617Z" fill="url(#paint0_linear_2_3999)"/>
<defs>
<linearGradient id="paint0_linear_2_3999" x1="0" y1="50.5576" x2="50" y2="50.5576" gradientUnits="userSpaceOnUse">
<stop stop-color="#00F0FF"/>
<stop offset="1" stop-color="#5773FF"/>
</linearGradient>
</defs>
</svg>
