<svg width="50" height="51" viewBox="0 0 50 51" fill="none" xmlns="http://www.w3.org/2000/svg">
<path d="M25.0056 12.7355C17.9113 12.7355 12.1891 18.4578 12.1891 25.552C12.1891 32.6463 17.9113 38.3685 25.0056 38.3685C32.0998 38.3685 37.8221 32.6463 37.8221 25.552C37.8221 18.4578 32.0998 12.7355 25.0056 12.7355ZM25.0056 33.8844C20.4211 33.8844 16.6732 30.1477 16.6732 25.552C16.6732 20.9564 20.4099 17.2196 25.0056 17.2196C29.6012 17.2196 33.338 20.9564 33.338 25.552C33.338 30.1477 29.5901 33.8844 25.0056 33.8844ZM41.3358 12.2113C41.3358 13.8733 39.9972 15.2007 38.3464 15.2007C36.6843 15.2007 35.3569 13.8621 35.3569 12.2113C35.3569 10.5604 36.6955 9.22187 38.3464 9.22187C39.9972 9.22187 41.3358 10.5604 41.3358 12.2113ZM49.8243 15.2453C49.6347 11.2408 48.72 7.6937 45.7864 4.77123C42.8639 1.84875 39.3168 0.934081 35.3123 0.7333C31.1852 0.499056 18.8148 0.499056 14.6877 0.7333C10.6944 0.922927 7.14724 1.83759 4.21361 4.76007C1.27998 7.68255 0.376464 11.2297 0.175683 15.2341C-0.0585611 19.3613 -0.0585611 31.7316 0.175683 35.8588C0.36531 39.8632 1.27998 43.4104 4.21361 46.3329C7.14724 49.2553 10.6832 50.17 14.6877 50.3708C18.8148 50.605 31.1852 50.605 35.3123 50.3708C39.3168 50.1812 42.8639 49.2665 45.7864 46.3329C48.7089 43.4104 49.6235 39.8632 49.8243 35.8588C50.0586 31.7316 50.0586 19.3725 49.8243 15.2453ZM44.4925 40.2871C43.6224 42.4734 41.9381 44.1577 39.7407 45.0389C36.4501 46.344 28.6419 46.0428 25.0056 46.0428C21.3692 46.0428 13.5499 46.3329 10.2705 45.0389C8.08422 44.1689 6.39989 42.4846 5.51868 40.2871C4.21361 36.9965 4.51478 29.1884 4.51478 25.552C4.51478 21.9157 4.22476 14.0964 5.51868 10.817C6.38873 8.63068 8.07306 6.94635 10.2705 6.06515C13.5611 4.76007 21.3692 5.06124 25.0056 5.06124C28.6419 5.06124 36.4612 4.77123 39.7407 6.06515C41.9269 6.9352 43.6113 8.61952 44.4925 10.817C45.7975 14.1075 45.4964 21.9157 45.4964 25.552C45.4964 29.1884 45.7975 37.0077 44.4925 40.2871Z" fill="url(#paint0_linear_2_4000)"/>
<defs>
<linearGradient id="paint0_linear_2_4000" x1="0" y1="50.5465" x2="50" y2="50.5465" gradientUnits="userSpaceOnUse">
<stop stop-color="#00F0FF"/>
<stop offset="1" stop-color="#5773FF"/>
</linearGradient>
</defs>
</svg>
