<svg width="50" height="51" viewBox="0 0 50 51" fill="none" xmlns="http://www.w3.org/2000/svg">
<path d="M46.4286 0.557617H3.56027C1.59598 0.557617 0 2.17592 0 4.16253V46.9527C0 48.9393 1.59598 50.5576 3.56027 50.5576H46.4286C48.3929 50.5576 50 48.9393 50 46.9527V4.16253C50 2.17592 48.3929 0.557617 46.4286 0.557617ZM15.1116 43.4148H7.70089V19.5532H15.1228V43.4148H15.1116ZM11.4062 16.2942C9.02902 16.2942 7.10938 14.3634 7.10938 11.9973C7.10938 9.63128 9.02902 7.70047 11.4062 7.70047C13.7723 7.70047 15.7031 9.63128 15.7031 11.9973C15.7031 14.3746 13.7835 16.2942 11.4062 16.2942V16.2942ZM42.8906 43.4148H35.4799V31.8076C35.4799 29.0398 35.4241 25.4795 31.6295 25.4795C27.7679 25.4795 27.1763 28.4929 27.1763 31.6067V43.4148H19.7656V19.5532H26.875V22.8121H26.9754C27.9687 20.9371 30.3906 18.9616 33.9955 18.9616C41.4955 18.9616 42.8906 23.9058 42.8906 30.3344V43.4148V43.4148Z" fill="url(#paint0_linear_2_3998)"/>
<defs>
<linearGradient id="paint0_linear_2_3998" x1="0" y1="50.5576" x2="50" y2="50.5576" gradientUnits="userSpaceOnUse">
<stop stop-color="#00F0FF"/>
<stop offset="1" stop-color="#5773FF"/>
</linearGradient>
</defs>
</svg>
